<?xml version="1.0" encoding="UTF-8"?>
<svg xmlns="http://www.w3.org/2000/svg" xmlns:xlink="http://www.w3.org/1999/xlink" width="105px" height="105px" viewBox="0 0 105 105" version="1.1">
<g id="surface1">
<path style=" stroke:none;fill-rule:nonzero;fill:rgb(0%,0%,0%);fill-opacity:1;" d="M 85.972656 36.6875 C 85.785156 35.574219 85.617188 34.460938 85.429688 33.347656 C 85.363281 32.992188 85.28125 32.59375 84.988281 32.402344 C 84.609375 32.152344 84.0625 32.359375 83.664062 32.128906 C 83.242188 31.898438 83.179688 31.289062 82.824219 30.976562 C 82.402344 30.597656 81.753906 30.679688 81.226562 30.828125 C 79.484375 31.289062 77.847656 32.089844 76.398438 33.160156 C 75.347656 33.9375 74.382812 34.859375 73.269531 35.53125 C 70.539062 37.148438 67.15625 37.085938 63.988281 36.960938 C 59.492188 36.792969 54.976562 36.601562 50.484375 36.6875 C 46.871094 36.75 43.511719 37.273438 41.117188 34.039062 C 40.171875 32.761719 39.5625 31.269531 39.019531 29.777344 C 37.90625 26.710938 36.960938 23.519531 35.027344 20.894531 C 33.097656 18.269531 29.757812 16.066406 26.566406 16.738281 C 26.691406 16.066406 26.816406 15.328125 26.417969 14.742188 C 26.207031 14.425781 25.828125 14.257812 25.453125 14.300781 C 24.695312 14.40625 24.820312 15.328125 24.316406 15.601562 C 23.960938 15.792969 23.5 15.582031 23.140625 15.769531 C 22.617188 16.003906 22.679688 16.800781 22.21875 17.09375 C 22.09375 17.179688 21.945312 17.199219 21.796875 17.242188 C 21.335938 17.410156 21 17.890625 21 18.394531 C 21 18.898438 21.441406 19.59375 21.902344 19.78125 C 20.789062 20.453125 19.804688 21.292969 18.941406 22.261719 C 18.859375 22.34375 18.941406 22.492188 19.066406 22.449219 C 19.738281 22.261719 20.476562 22.238281 21.167969 22.386719 C 22.847656 22.765625 23.351562 24.757812 25.09375 25.347656 C 25.640625 25.535156 26.292969 25.703125 26.480469 26.230469 C 26.542969 26.375 26.542969 26.542969 26.542969 26.710938 C 26.691406 32.339844 26.542969 37.863281 26.25 43.46875 C 25.976562 48.65625 26.335938 54.242188 29.484375 58.359375 C 31.3125 60.753906 33.894531 62.410156 36.433594 64.027344 C 37.210938 64.53125 38.050781 65.035156 38.976562 65.078125 C 41.832031 68.902344 45.445312 72.070312 49.328125 74.863281 C 50.023438 75.367188 50.820312 76.019531 50.734375 76.882812 C 50.695312 77.257812 50.503906 77.59375 50.296875 77.910156 C 48.886719 80.136719 47.503906 82.382812 46.09375 84.609375 C 45.90625 84.925781 45.695312 85.261719 45.382812 85.46875 C 44.941406 85.785156 44.394531 85.828125 43.867188 85.890625 C 42.019531 86.078125 40.195312 86.414062 38.410156 86.917969 C 37.652344 87.128906 36.898438 87.382812 36.289062 87.84375 C 35.761719 88.242188 35.34375 88.828125 35.257812 89.480469 C 35.238281 89.605469 35.386719 89.691406 35.488281 89.628906 C 36.015625 89.269531 36.6875 89.164062 37.316406 89.0625 C 38.472656 88.894531 39.628906 88.726562 40.78125 88.535156 C 39.984375 88.914062 39.460938 89.773438 39.460938 90.65625 C 39.460938 90.699219 39.5 90.71875 39.542969 90.699219 C 42.988281 88.914062 46.808594 88.074219 50.609375 87.253906 C 51.050781 87.148438 51.511719 87.066406 51.933594 87.214844 C 52.101562 87.277344 52.269531 87.382812 52.394531 87.507812 C 52.585938 87.71875 52.898438 87.675781 53.089844 87.445312 C 53.800781 86.539062 54.914062 85.953125 56.050781 85.699219 C 57.476562 85.363281 58.988281 85.46875 60.460938 85.574219 C 61.320312 85.636719 62.285156 85.742188 62.8125 86.4375 C 63.378906 86.164062 63.210938 85.238281 62.726562 84.839844 C 62.222656 84.441406 61.550781 84.355469 61.003906 84.019531 C 59.449219 83.117188 59.429688 80.914062 59.617188 79.128906 C 59.746094 77.890625 59.871094 76.648438 59.996094 75.410156 C 60.039062 75.011719 60.082031 74.59375 60.3125 74.234375 C 60.605469 73.792969 61.109375 73.585938 61.59375 73.375 C 62.726562 72.847656 63.820312 72.21875 64.804688 71.441406 C 65.8125 70.664062 66.738281 69.78125 67.453125 68.734375 C 68.019531 67.894531 68.4375 66.988281 68.964844 66.128906 C 69.910156 64.597656 71.148438 63.253906 72.199219 61.78125 C 73.246094 60.3125 74.425781 58.316406 74.464844 56.511719 C 75.179688 55.398438 75.871094 54.285156 76.585938 53.152344 C 77.929688 51.007812 79.316406 48.847656 81.207031 47.1875 C 82.507812 46.054688 84.019531 45.148438 85.050781 43.765625 C 85.617188 43.007812 85.996094 42.042969 85.765625 41.140625 C 85.660156 40.738281 85.449219 40.382812 85.429688 39.984375 C 85.40625 39.394531 85.847656 38.890625 86.015625 38.324219 C 86.140625 37.820312 86.058594 37.234375 85.972656 36.6875 Z M 56.53125 81.121094 C 56.363281 81.710938 56.175781 82.300781 55.753906 82.738281 C 55.441406 83.035156 55.039062 83.222656 54.640625 83.410156 C 53.675781 83.851562 52.6875 84.273438 51.722656 84.714844 C 51.492188 84.820312 51.199219 84.925781 50.96875 84.820312 C 50.800781 84.734375 50.695312 84.589844 50.632812 84.421875 C 50.230469 83.515625 50.566406 82.488281 50.925781 81.5625 C 52.414062 77.679688 54.328125 75.242188 58.105469 73.457031 C 57.75 76.039062 57.246094 78.601562 56.53125 81.121094 Z M 56.53125 81.121094 "/>
</g>
</svg>
